<?xml version="1.0" encoding="UTF-8"?>
<svg width="38px" height="39px" viewBox="0 0 38 39" version="1.1" xmlns="http://www.w3.org/2000/svg" xmlns:xlink="http://www.w3.org/1999/xlink">
    <!-- Generator: Sketch 59.1 (86144) - https://sketch.com -->
    <title>G</title>
    <desc>Created with Sketch.</desc>
    <g id="Welcome" stroke="none" stroke-width="1" fill="none" fill-rule="evenodd">
        <g id="Resume-/-CV" transform="translate(-227.000000, -42.000000)" fill="#FEE5B5" fill-rule="nonzero">
            <g id="Home-Section" transform="translate(-117.000000, -133.000000)">
                <g id="Navigtaion" transform="translate(345.000000, 173.000000)">
                    <g id="Logo">
                        <path d="M30.51,22.72 L36.81,22.72 L32.4,19.24 C31.17,18.31 29.7,17.77 28.14,17.77 C24.36,17.77 21.27,20.86 21.27,24.64 L21.27,39.61 C22.02,39.88 22.83,40.03 23.67,40.03 C27.45,40.03 30.51,36.97 30.51,33.16 L30.51,22.72 Z M25.71,14.08 C28.92,14.08 31.53,11.47 31.53,8.26 C31.53,5.05 28.92,2.44 25.71,2.44 C22.5,2.44 19.89,5.05 19.89,8.26 C19.89,11.47 22.5,14.08 25.71,14.08 Z M16.62,2.35 C14.16,3.91 10.17,11.77 10.17,21.19 C10.17,30.61 13.77,38.44 16.62,40.03 C9.45,40.03 -0.3,32.59 -0.3,21.19 C-0.3,9.79 9.45,2.35 16.62,2.35 Z" id="G"></path>
                    </g>
                </g>
            </g>
        </g>
    </g>
</svg>